{
  "accessors": [
    {
      "bufferView": 2,
      "componentType": 5126,
      "count": 2262,
      "max": [
        32.65561294555664,
        158.33248901367188,
        8.23749828338623
      ],
      "min": [
        -32.011627197265625,
        106.02054595947266,
        -21.17558479309082
      ],
      "type": "VEC3"
    },
    {
      "bufferView": 2,
      "byteOffset": 27144,
      "componentType": 5126,
      "count": 2262,
      "max": [
        0.9983652234077454,
        0.8925471901893616,
        0.9998540282249451
      ],
      "min": [
        -0.9927383065223694,
        -0.8181833028793335,
        -0.9999341368675232
      ],
      "type": "VEC3"
    },
    {
      "bufferView": 1,
      "componentType": 5126,
      "count": 2262,
      "max": [
        75.00021362304688,
        10.000113487243652
      ],
      "min": [
        -75.00021362304688,
        -10.000113487243652
      ],
      "type": "VEC2"
    },
    {
      "bufferView": 0,
      "componentType": 5125,
      "count": 12720,
      "type": "SCALAR"
    },
    {
      "bufferView": 2,
      "byteOffset": 54288,
      "componentType": 5126,
      "count": 2262,
      "max": [
        32.569515228271484,
        158.247314453125,
        8.174529075622559
      ],
      "min": [
        -31.937808990478516,
        106.08267974853516,
        -21.093564987182617
      ],
      "type": "VEC3"
    },
    {
      "bufferView": 2,
      "byteOffset": 81432,
      "componentType": 5126,
      "count": 2262,
      "max": [
        0.9927383065223694,
        0.8181833028793335,
        0.9999341368675232
      ],
      "min": [
        -0.9983652234077454,
        -0.8925471901893616,
        -0.9998540282249451
      ],
      "type": "VEC3"
    },
    {
      "bufferView": 1,
      "byteOffset": 18096,
      "componentType": 5126,
      "count": 2262,
      "max": [
        75.00021362304688,
        10.000113487243652
      ],
      "min": [
        -75.00021362304688,
        -10.000113487243652
      ],
      "type": "VEC2"
    },
    {
      "bufferView": 0,
      "byteOffset": 50880,
      "componentType": 5125,
      "count": 12720,
      "type": "SCALAR"
    },
    {
      "bufferView": 2,
      "byteOffset": 108576,
      "componentType": 5126,
      "count": 3113,
      "max": [
        32.662662506103516,
        158.3397674560547,
        8.256555557250977
      ],
      "min": [
        -32.02286148071289,
        105.9922103881836,
        -21.184789657592773
      ],
      "type": "VEC3"
    },
    {
      "bufferView": 2,
      "byteOffset": 145932,
      "componentType": 5126,
      "count": 3113,
      "max": [
        0.9998226165771484,
        0.9996404647827148,
        0.9997301697731018
      ],
      "min": [
        -0.9999750852584839,
        -0.9996086359024048,
        -0.9995743036270142
      ],
      "type": "VEC3"
    },
    {
      "bufferView": 1,
      "byteOffset": 36192,
      "componentType": 5126,
      "count": 3113,
      "max": [
        75.31436920166016,
        10.3142728805542
      ],
      "min": [
        -75.31436920166016,
        -10.3142728805542
      ],
      "type": "VEC2"
    },
    {
      "bufferView": 0,
      "byteOffset": 101760,
      "componentType": 5125,
      "count": 16920,
      "type": "SCALAR"
    },
    {
      "bufferView": 2,
      "byteOffset": 183288,
      "componentType": 5126,
      "count": 577,
      "max": [
        20.2314510345459,
        158.40147399902344,
        8.288504600524902
      ],
      "min": [
        -19.443748474121094,
        113.09342956542969,
        -21.242019653320313
      ],
      "type": "VEC3"
    },
    {
      "bufferView": 2,
      "byteOffset": 190212,
      "componentType": 5126,
      "count": 577,
      "max": [
        0.9423269033432007,
        0.8826730251312256,
        0.9541628360748291
      ],
      "min": [
        -0.9576107859611511,
        -0.6435348987579346,
        -0.8906075358390808
      ],
      "type": "VEC3"
    },
    {
      "bufferView": 1,
      "byteOffset": 61096,
      "componentType": 5126,
      "count": 577,
      "max": [
        1.0000019073486328,
        3000.000244140625
      ],
      "min": [
        0.0,
        0.009999999776482582
      ],
      "type": "VEC2"
    },
    {
      "bufferView": 0,
      "byteOffset": 169440,
      "componentType": 5125,
      "count": 1500,
      "type": "SCALAR"
    },
    {
      "bufferView": 2,
      "byteOffset": 197136,
      "componentType": 5126,
      "count": 622,
      "max": [
        32.72621536254883,
        143.38890075683594,
        2.9067983627319336
      ],
      "min": [
        -32.07215881347656,
        105.97000885009766,
        -15.133837699890137
      ],
      "type": "VEC3"
    },
    {
      "bufferView": 2,
      "byteOffset": 204600,
      "componentType": 5126,
      "count": 622,
      "max": [
        0.9532959461212158,
        0.7730980515480042,
        0.9985057711601257
      ],
      "min": [
        -0.9102689027786255,
        -0.6213226914405823,
        -0.9997445344924927
      ],
      "type": "VEC3"
    },
    {
      "bufferView": 1,
      "byteOffset": 65712,
      "componentType": 5126,
      "count": 622,
      "max": [
        1.0000019073486328,
        2999.99853515625
      ],
      "min": [
        0.0,
        0.009999999776482582
      ],
      "type": "VEC2"
    },
    {
      "bufferView": 0,
      "byteOffset": 175440,
      "componentType": 5125,
      "count": 1584,
      "type": "SCALAR"
    },
    {
      "bufferView": 2,
      "byteOffset": 212064,
      "componentType": 5126,
      "count": 94,
      "max": [
        26.20067596435547,
        113.14456176757813,
        6.277239799499512
      ],
      "min": [
        11.565412521362305,
        105.9690933227539,
        -0.42073512077331543
      ],
      "type": "VEC3"
    },
    {
      "bufferView": 2,
      "byteOffset": 213192,
      "componentType": 5126,
      "count": 94,
      "max": [
        0.8485720157623291,
        0.13572680950164795,
        0.9844363927841187
      ],
      "min": [
        -0.5261321663856506,
        -0.6437284350395203,
        0.4698916971683502
      ],
      "type": "VEC3"
    },
    {
      "bufferView": 1,
      "byteOffset": 70688,
      "componentType": 5126,
      "count": 94,
      "max": [
        1.0000009536743164,
        399.9942626953125
      ],
      "min": [
        0.0,
        0.010000000707805157
      ],
      "type": "VEC2"
    },
    {
      "bufferView": 0,
      "byteOffset": 181776,
      "componentType": 5125,
      "count": 198,
      "type": "SCALAR"
    },
    {
      "bufferView": 2,
      "byteOffset": 214320,
      "componentType": 5126,
      "count": 81,
      "max": [
        -12.787367820739746,
        114.49031829833984,
        7.572930335998535
      ],
      "min": [
        -25.475828170776367,
        107.4479751586914,
        -1.491323471069336
      ],
      "type": "VEC3"
    },
    {
      "bufferView": 2,
      "byteOffset": 215292,
      "componentType": 5126,
      "count": 81,
      "max": [
        0.2749728262424469,
        0.06892475485801697,
        0.997747540473938
      ],
      "min": [
        -0.9766374230384827,
        -0.6284021139144897,
        0.11764190346002579
      ],
      "type": "VEC3"
    },
    {
      "bufferView": 1,
      "byteOffset": 71440,
      "componentType": 5126,
      "count": 81,
      "max": [
        1.0,
        399.9942932128906
      ],
      "min": [
        0.0,
        0.010000000707805157
      ],
      "type": "VEC2"
    },
    {
      "bufferView": 0,
      "byteOffset": 182568,
      "componentType": 5125,
      "count": 198,
      "type": "SCALAR"
    },
    {
      "bufferView": 2,
      "byteOffset": 216264,
      "componentType": 5126,
      "count": 2262,
      "max": [
        32.656044006347656,
        158.33291625976563,
        8.237813949584961
      ],
      "min": [
        -32.01199722290039,
        106.02023315429688,
        -21.175994873046875
      ],
      "type": "VEC3"
    },
    {
      "bufferView": 2,
      "byteOffset": 243408,
      "componentType": 5126,
      "count": 2262,
      "max": [
        0.9983652234077454,
        0.8925471901893616,
        0.9998540282249451
      ],
      "min": [
        -0.9927383065223694,
        -0.8181833028793335,
        -0.9999341368675232
      ],
      "type": "VEC3"
    },
    {
      "bufferView": 1,
      "byteOffset": 72088,
      "componentType": 5126,
      "count": 2262,
      "max": [
        0.9865859746932983,
        0.9754282236099243
      ],
      "min": [
        0.013414035551249981,
        0.024571813642978668
      ],
      "type": "VEC2"
    },
    {
      "bufferView": 0,
      "byteOffset": 183360,
      "componentType": 5125,
      "count": 12720,
      "type": "SCALAR"
    }
  ],
  "asset": {
    "extras": {
      "author": "GEFF SPORT (https://sketchfab.com/geffsport)",
      "license": "CC-BY-4.0 (http://creativecommons.org/licenses/by/4.0/)",
      "source": "https://sketchfab.com/3d-models/scarf-bufanda-galicia-727df85dcee449a7980a7219a9d05f9d",
      "title": "SCARF - BUFANDA - GALICIA"
    },
    "generator": "Sketchfab-16.56.0",
    "version": "2.0"
  },
  "bufferViews": [
    {
      "buffer": 0,
      "byteLength": 234240,
      "name": "floatBufferViews",
      "target": 34963
    },
    {
      "buffer": 0,
      "byteLength": 90184,
      "byteOffset": 234240,
      "byteStride": 8,
      "name": "floatBufferViews",
      "target": 34962
    },
    {
      "buffer": 0,
      "byteLength": 270552,
      "byteOffset": 324424,
      "byteStride": 12,
      "name": "floatBufferViews",
      "target": 34962
    }
  ],
  "buffers": [
    {
      "byteLength": 594976,
      "uri": "scene.bin"
    }
  ],
  "images": [
    {
      "uri": "textures/material_Shader7_baseColor.png"
    }
  ],
  "materials": [
    {
      "alphaMode": "BLEND",
      "doubleSided": true,
      "name": "material_Shader7",
      "pbrMetallicRoughness": {
        "baseColorFactor": [
          1.0,
          1.0,
          1.0,
          0.0
        ],
        "baseColorTexture": {
          "index": 0
        },
        "metallicFactor": 0.0
      }
    },
    {
      "doubleSided": true,
      "name": "material_Shader12",
      "pbrMetallicRoughness": {
        "baseColorFactor": [
          0.0,
          0.0,
          0.0,
          1.0
        ],
        "metallicFactor": 0.0
      }
    },
    {
      "doubleSided": true,
      "name": "material_Shader_Logo_fbx10",
      "pbrMetallicRoughness": {
        "baseColorTexture": {
          "index": 0
        },
        "metallicFactor": 0.0
      }
    }
  ],
  "meshes": [
    {
      "name": "SCARF1_material_Shader[7]_0",
      "primitives": [
        {
          "attributes": {
            "NORMAL": 1,
            "POSITION": 0,
            "TEXCOORD_0": 2
          },
          "indices": 3,
          "material": 0,
          "mode": 4
        }
      ]
    },
    {
      "name": "SCARF1_back_material_Shader[7]_0",
      "primitives": [
        {
          "attributes": {
            "NORMAL": 5,
            "POSITION": 4,
            "TEXCOORD_0": 6
          },
          "indices": 7,
          "material": 0,
          "mode": 4
        }
      ]
    },
    {
      "name": "SCARF1_Boundary_material_Shader[7]_0",
      "primitives": [
        {
          "attributes": {
            "NORMAL": 9,
            "POSITION": 8,
            "TEXCOORD_0": 10
          },
          "indices": 11,
          "material": 0,
          "mode": 4
        }
      ]
    },
    {
      "name": "SCARF1_Puntada001_material_Shader[12]_0",
      "primitives": [
        {
          "attributes": {
            "NORMAL": 13,
            "POSITION": 12,
            "TEXCOORD_0": 14
          },
          "indices": 15,
          "material": 1,
          "mode": 4
        }
      ]
    },
    {
      "name": "SCARF1_Puntada002_material_Shader[12]_0",
      "primitives": [
        {
          "attributes": {
            "NORMAL": 17,
            "POSITION": 16,
            "TEXCOORD_0": 18
          },
          "indices": 19,
          "material": 1,
          "mode": 4
        }
      ]
    },
    {
      "name": "SCARF1_Puntada003_material_Shader[12]_0",
      "primitives": [
        {
          "attributes": {
            "NORMAL": 21,
            "POSITION": 20,
            "TEXCOORD_0": 22
          },
          "indices": 23,
          "material": 1,
          "mode": 4
        }
      ]
    },
    {
      "name": "SCARF1_Puntada004_material_Shader[12]_0",
      "primitives": [
        {
          "attributes": {
            "NORMAL": 25,
            "POSITION": 24,
            "TEXCOORD_0": 26
          },
          "indices": 27,
          "material": 1,
          "mode": 4
        }
      ]
    },
    {
      "name": "SCARF1_LogoMesh_1_material_Shader Logo fbx[10]_0",
      "primitives": [
        {
          "attributes": {
            "NORMAL": 29,
            "POSITION": 28,
            "TEXCOORD_0": 30
          },
          "indices": 31,
          "material": 2,
          "mode": 4
        }
      ]
    }
  ],
  "nodes": [
    {
      "children": [
        1
      ],
      "matrix": [
        1.0,
        0.0,
        0.0,
        0.0,
        0.0,
        -5.053215392444312e-16,
        1.0,
        0.0,
        0.0,
        -1.0,
        -5.053215392444312e-16,
        0.0,
        0.0,
        0.0,
        0.0,
        1.0
      ],
      "name": "Sketchfab_model"
    },
    {
      "children": [
        2
      ],
      "matrix": [
        1.0,
        0.0,
        0.0,
        0.0,
        0.0,
        -1.0,
        0.0,
        0.0,
        0.0,
        0.0,
        -1.0,
        0.0,
        0.0,
        0.0,
        0.0,
        1.0
      ],
      "name": "Variant1_SOFI 1.fbx"
    },
    {
      "children": [
        3,
        11,
        20
      ],
      "name": "RootNode"
    },
    {
      "children": [
        4
      ],
      "matrix": [
        10.0,
        0.0,
        0.0,
        0.0,
        0.0,
        2.220446049250313e-15,
        10.0,
        0.0,
        0.0,
        -10.0,
        2.220446049250313e-15,
        0.0,
        0.0,
        0.0,
        0.0,
        1.0
      ],
      "name": "Pieces"
    },
    {
      "children": [
        5,
        7,
        9
      ],
      "name": "SCARF1_GR"
    },
    {
      "children": [
        6
      ],
      "name": "SCARF1"
    },
    {
      "mesh": 0,
      "name": "SCARF1_material_Shader[7]_0"
    },
    {
      "children": [
        8
      ],
      "name": "SCARF1_back"
    },
    {
      "mesh": 1,
      "name": "SCARF1_back_material_Shader[7]_0"
    },
    {
      "children": [
        10
      ],
      "name": "SCARF1_Boundary"
    },
    {
      "mesh": 2,
      "name": "SCARF1_Boundary_material_Shader[7]_0"
    },
    {
      "children": [
        12,
        14,
        16,
        18
      ],
      "matrix": [
        10.0,
        0.0,
        0.0,
        0.0,
        0.0,
        2.220446049250313e-15,
        10.0,
        0.0,
        0.0,
        -10.0,
        2.220446049250313e-15,
        0.0,
        0.0,
        0.0,
        0.0,
        1.0
      ],
      "name": "TexturedStitchess"
    },
    {
      "children": [
        13
      ],
      "name": "SCARF1_Puntada001"
    },
    {
      "mesh": 3,
      "name": "SCARF1_Puntada001_material_Shader[12]_0"
    },
    {
      "children": [
        15
      ],
      "name": "SCARF1_Puntada002"
    },
    {
      "mesh": 4,
      "name": "SCARF1_Puntada002_material_Shader[12]_0"
    },
    {
      "children": [
        17
      ],
      "name": "SCARF1_Puntada003"
    },
    {
      "mesh": 5,
      "name": "SCARF1_Puntada003_material_Shader[12]_0"
    },
    {
      "children": [
        19
      ],
      "name": "SCARF1_Puntada004"
    },
    {
      "mesh": 6,
      "name": "SCARF1_Puntada004_material_Shader[12]_0"
    },
    {
      "children": [
        21
      ],
      "matrix": [
        10.0,
        0.0,
        0.0,
        0.0,
        0.0,
        2.220446049250313e-15,
        10.0,
        0.0,
        0.0,
        -10.0,
        2.220446049250313e-15,
        0.0,
        0.0,
        0.0,
        0.0,
        1.0
      ],
      "name": "Logos"
    },
    {
      "children": [
        22
      ],
      "name": "SCARF1_LogoMesh_1"
    },
    {
      "mesh": 7,
      "name": "SCARF1_LogoMesh_1_material_Shader Logo fbx[10]_0"
    }
  ],
  "samplers": [
    {
      "magFilter": 9729,
      "minFilter": 9987,
      "wrapS": 10497,
      "wrapT": 10497
    }
  ],
  "scene": 0,
  "scenes": [
    {
      "name": "Sketchfab_Scene",
      "nodes": [
        0
      ]
    }
  ],
  "textures": [
    {
      "sampler": 0,
      "source": 0
    }
  ]
}
